<svg width="335" height="33" viewBox="0 0 335 33" fill="none" xmlns="http://www.w3.org/2000/svg">
<path d="M265.197 24.9265C262.669 24.9265 261 23.4066 261 21.085H262.414C262.414 22.605 263.57 23.5869 265.197 23.5869C267.081 23.5869 267.979 22.7825 267.979 21.4872C267.979 20.5497 267.551 19.8785 265.154 19.4319C262.712 18.9854 261.343 18.181 261.343 16.2145C261.343 14.248 262.842 12.9971 265.154 12.9971C267.466 12.9971 269.05 14.3367 269.05 16.5723H267.679C267.679 15.2326 266.823 14.3395 265.154 14.3395C263.485 14.3395 262.669 15.0995 262.669 16.1701C262.669 17.152 263.185 17.6457 265.409 18.0923C267.809 18.5832 269.305 19.2988 269.305 21.4872C269.348 23.7228 267.679 24.9293 265.197 24.9293" fill="#292A69"/>
<path d="M274.657 17.3323C273.115 17.3323 271.917 18.7635 271.917 20.5053C271.917 22.2472 273.115 23.634 274.657 23.634C276.198 23.634 277.439 22.25 277.439 20.5053C277.439 18.7607 276.198 17.3323 274.657 17.3323ZM278.811 24.7046H277.527V23.3206C276.969 24.2137 275.898 24.8849 274.699 24.8849C272.344 24.8849 270.633 22.874 270.633 20.4166C270.633 17.9591 272.387 15.9482 274.699 15.9482C275.898 15.9482 276.926 16.6638 277.527 17.5126V16.1729H278.811V24.7074V24.7046Z" fill="#292A69"/>
<path d="M287.889 24.7047H286.562V19.5651C286.562 18.2698 285.877 17.2852 284.55 17.2852C283.307 17.2852 282.408 18.2227 282.408 19.518V24.7019H281.082V16.2118H282.366V17.1493C282.921 16.4337 283.78 16.0315 284.72 16.0315C286.732 16.0315 287.846 17.5071 287.846 19.6511V24.7019H287.889" fill="#292A69"/>
<path d="M293.672 17.3324C292.13 17.3324 290.932 18.7608 290.932 20.5054C290.932 22.2501 292.13 23.6341 293.672 23.6341C295.213 23.6341 296.454 22.2501 296.454 20.5054C296.454 18.7608 295.171 17.3324 293.672 17.3324ZM297.783 24.7047H296.497V23.3207C295.942 24.2138 294.87 24.885 293.672 24.885C291.317 24.885 289.605 22.8741 289.605 20.4611C289.605 18.048 291.36 15.9483 293.672 15.9483C294.828 15.9483 295.856 16.6196 296.454 17.4683V12.4175H297.783V24.7047Z" fill="#292A69"/>
<path d="M307.068 22.6051L308.824 16.2146H310.238L307.796 24.7047H306.385L304.628 18.2255L302.916 24.7047H301.502L299.062 16.2146H300.476L302.231 22.6051L303.942 16.2146H305.356L307.068 22.6051Z" fill="#292A69"/>
<path d="M321.846 24.9267C319.577 24.9267 317.777 22.9602 317.777 20.5028C317.777 18.0453 319.619 16.0344 321.846 16.0344C323.643 16.0344 325.099 17.1522 325.655 18.8941H324.201C323.728 17.9566 322.915 17.3741 321.846 17.3741C320.347 17.3741 319.106 18.8053 319.106 20.5028C319.106 22.2002 320.347 23.6314 321.846 23.6314C322.915 23.6314 323.773 23.0517 324.201 22.1115H325.655C325.099 23.809 323.643 24.9267 321.846 24.9267Z" fill="#292A69"/>
<path d="M334.086 24.7047H332.76V19.5652C332.76 18.2255 332.032 17.3324 330.746 17.3324C329.459 17.3324 328.606 18.2699 328.606 19.5208V24.7047H327.277V12.4175H328.606V17.0633C329.162 16.3921 329.975 15.9899 330.918 15.9899C332.93 15.9899 334.044 17.4655 334.044 19.6095V24.7047H334.086Z" fill="#292A69"/>
<path d="M313.328 12.4979C313.328 13.183 313.86 13.7377 314.519 13.7377C315.178 13.7377 315.707 13.183 315.707 12.4979C315.707 11.8128 315.175 11.2581 314.519 11.2581C313.862 11.2581 313.328 11.8128 313.328 12.4979Z" fill="#F89C22"/>
<path d="M314.98 16.2229L319.124 11.9736L319.868 12.7863L316.184 16.6666V24.6464H314.98V16.2229Z" fill="#85C7BA"/>
<path d="M313.987 16.2229L309.846 11.9736L309.102 12.7863L312.783 16.6666V24.6464H313.987V16.2229Z" fill="#F89C22"/>
<path d="M243.268 24.4131H242.008V15.0751H243.268V18.6311C243.8 17.9031 244.598 17.4831 245.48 17.4831C247.244 17.4831 248.49 18.8691 248.49 21.0391C248.49 23.2511 247.23 24.5811 245.48 24.5811C244.57 24.5811 243.772 24.1191 243.268 23.4471V24.4131ZM243.268 19.6111V22.4811C243.604 23.0271 244.374 23.4611 245.144 23.4611C246.404 23.4611 247.188 22.4531 247.188 21.0391C247.188 19.6251 246.404 18.6031 245.144 18.6031C244.374 18.6031 243.604 19.0651 243.268 19.6111ZM249.626 27.0591L249.822 25.9251C249.976 25.9951 250.214 26.0371 250.382 26.0371C250.844 26.0371 251.152 25.8831 251.362 25.3791L251.754 24.4831L248.968 17.6511H250.312L252.426 22.9571L254.54 17.6511H255.898L252.566 25.7011C252.132 26.7651 251.39 27.1431 250.41 27.1571C250.2 27.1571 249.822 27.1151 249.626 27.0591Z" fill="#292A69"/>
<path d="M1.462 12.134C1.462 9.822 1.98333 7.748 3.026 5.912C4.06867 4.05333 5.48533 2.60267 7.276 1.56C9.08933 0.517332 11.0953 -0.00400102 13.294 -0.00400102C15.878 -0.00400102 18.1333 0.619332 20.06 1.866C21.9867 3.11267 23.392 4.88067 24.276 7.17H20.57C19.9127 5.742 18.9607 4.64267 17.714 3.872C16.49 3.10133 15.0167 2.716 13.294 2.716C11.6393 2.716 10.1547 3.10133 8.84 3.872C7.52533 4.64267 6.494 5.742 5.746 7.17C4.998 8.57533 4.624 10.23 4.624 12.134C4.624 14.0153 4.998 15.67 5.746 17.098C6.494 18.5033 7.52533 19.5913 8.84 20.362C10.1547 21.1327 11.6393 21.518 13.294 21.518C15.0167 21.518 16.49 21.144 17.714 20.396C18.9607 19.6253 19.9127 18.526 20.57 17.098H24.276C23.392 19.3647 21.9867 21.1213 20.06 22.368C18.1333 23.592 15.878 24.204 13.294 24.204C11.0953 24.204 9.08933 23.694 7.276 22.674C5.48533 21.6313 4.06867 20.192 3.026 18.356C1.98333 16.52 1.462 14.446 1.462 12.134ZM26.3657 14.616C26.3657 12.712 26.751 11.046 27.5217 9.618C28.2923 8.16733 29.3463 7.04533 30.6837 6.252C32.0437 5.45867 33.551 5.062 35.2057 5.062C36.8377 5.062 38.2543 5.41333 39.4557 6.116C40.657 6.81867 41.5523 7.70267 42.1417 8.768V5.368H45.2697V24H42.1417V20.532C41.5297 21.62 40.6117 22.5267 39.3877 23.252C38.1863 23.9547 36.781 24.306 35.1717 24.306C33.517 24.306 32.021 23.898 30.6837 23.082C29.3463 22.266 28.2923 21.1213 27.5217 19.648C26.751 18.1747 26.3657 16.4973 26.3657 14.616ZM42.1417 14.65C42.1417 13.2447 41.8583 12.0207 41.2917 10.978C40.725 9.93533 39.9543 9.142 38.9797 8.598C38.0277 8.03133 36.9737 7.748 35.8177 7.748C34.6617 7.748 33.6077 8.02 32.6557 8.564C31.7037 9.108 30.9443 9.90133 30.3777 10.944C29.811 11.9867 29.5277 13.2107 29.5277 14.616C29.5277 16.044 29.811 17.2907 30.3777 18.356C30.9443 19.3987 31.7037 20.2033 32.6557 20.77C33.6077 21.314 34.6617 21.586 35.8177 21.586C36.9737 21.586 38.0277 21.314 38.9797 20.77C39.9543 20.2033 40.725 19.3987 41.2917 18.356C41.8583 17.2907 42.1417 16.0553 42.1417 14.65ZM53.2522 8.394C53.7962 7.32867 54.5669 6.50133 55.5642 5.912C56.5842 5.32267 57.8196 5.028 59.2702 5.028V8.224H58.4542C54.9862 8.224 53.2522 10.1053 53.2522 13.868V24H50.1582V5.368H53.2522V8.394ZM79.5018 13.97C79.5018 14.5593 79.4678 15.1827 79.3998 15.84H64.5078C64.6212 17.676 65.2445 19.1153 66.3778 20.158C67.5338 21.178 68.9278 21.688 70.5598 21.688C71.8972 21.688 73.0078 21.382 73.8918 20.77C74.7985 20.1353 75.4332 19.2967 75.7958 18.254H79.1278C78.6292 20.0447 77.6318 21.5067 76.1358 22.64C74.6398 23.7507 72.7812 24.306 70.5598 24.306C68.7918 24.306 67.2052 23.9093 65.7998 23.116C64.4172 22.3227 63.3292 21.2007 62.5358 19.75C61.7425 18.2767 61.3458 16.5767 61.3458 14.65C61.3458 12.7233 61.7312 11.0347 62.5018 9.584C63.2725 8.13333 64.3492 7.02267 65.7318 6.252C67.1372 5.45867 68.7465 5.062 70.5598 5.062C72.3278 5.062 73.8918 5.44733 75.2518 6.218C76.6118 6.98867 77.6545 8.054 78.3798 9.414C79.1278 10.7513 79.5018 12.27 79.5018 13.97ZM76.3058 13.324C76.3058 12.1453 76.0452 11.1367 75.5238 10.298C75.0025 9.43667 74.2885 8.79067 73.3818 8.36C72.4978 7.90667 71.5118 7.68 70.4238 7.68C68.8598 7.68 67.5225 8.17867 66.4118 9.176C65.3238 10.1733 64.7005 11.556 64.5418 13.324H76.3058ZM82.0898 12.134C82.0898 9.822 82.6111 7.748 83.6538 5.912C84.6965 4.05333 86.1131 2.60267 87.9038 1.56C89.7171 0.517332 91.7231 -0.00400102 93.9218 -0.00400102C96.5058 -0.00400102 98.7611 0.619332 100.688 1.866C102.614 3.11267 104.02 4.88067 104.904 7.17H101.198C100.54 5.742 99.5885 4.64267 98.3418 3.872C97.1178 3.10133 95.6445 2.716 93.9218 2.716C92.2671 2.716 90.7825 3.10133 89.4678 3.872C88.1531 4.64267 87.1218 5.742 86.3738 7.17C85.6258 8.57533 85.2518 10.23 85.2518 12.134C85.2518 14.0153 85.6258 15.67 86.3738 17.098C87.1218 18.5033 88.1531 19.5913 89.4678 20.362C90.7825 21.1327 92.2671 21.518 93.9218 21.518C95.6445 21.518 97.1178 21.144 98.3418 20.396C99.5885 19.6253 100.54 18.526 101.198 17.098H104.904C104.02 19.3647 102.614 21.1213 100.688 22.368C98.7611 23.592 96.5058 24.204 93.9218 24.204C91.7231 24.204 89.7171 23.694 87.9038 22.674C86.1131 21.6313 84.6965 20.192 83.6538 18.356C82.6111 16.52 82.0898 14.446 82.0898 12.134Z" fill="#292A69"/>
<path d="M132.214 24.306C130.786 24.306 129.505 24.068 128.372 23.592C127.239 23.0933 126.343 22.4133 125.686 21.552C125.029 20.668 124.666 19.6593 124.598 18.526H127.794C127.885 19.4553 128.315 20.2147 129.086 20.804C129.879 21.3933 130.911 21.688 132.18 21.688C133.359 21.688 134.288 21.4273 134.968 20.906C135.648 20.3847 135.988 19.7273 135.988 18.934C135.988 18.118 135.625 17.5173 134.9 17.132C134.175 16.724 133.053 16.3273 131.534 15.942C130.151 15.5793 129.018 15.2167 128.134 14.854C127.273 14.4687 126.525 13.9133 125.89 13.188C125.278 12.44 124.972 11.4653 124.972 10.264C124.972 9.312 125.255 8.43933 125.822 7.646C126.389 6.85267 127.193 6.22933 128.236 5.776C129.279 5.3 130.469 5.062 131.806 5.062C133.869 5.062 135.535 5.58333 136.804 6.626C138.073 7.66867 138.753 9.09667 138.844 10.91H135.75C135.682 9.93533 135.285 9.15333 134.56 8.564C133.857 7.97467 132.905 7.68 131.704 7.68C130.593 7.68 129.709 7.918 129.052 8.394C128.395 8.87 128.066 9.49333 128.066 10.264C128.066 10.876 128.259 11.386 128.644 11.794C129.052 12.1793 129.551 12.4967 130.14 12.746C130.752 12.9727 131.591 13.2333 132.656 13.528C133.993 13.8907 135.081 14.2533 135.92 14.616C136.759 14.956 137.473 15.4773 138.062 16.18C138.674 16.8827 138.991 17.8007 139.014 18.934C139.014 19.954 138.731 20.872 138.164 21.688C137.597 22.504 136.793 23.15 135.75 23.626C134.73 24.0793 133.551 24.306 132.214 24.306ZM146.816 7.918V18.9C146.816 19.8067 147.008 20.4527 147.394 20.838C147.779 21.2007 148.448 21.382 149.4 21.382H151.678V24H148.89C147.167 24 145.875 23.6033 145.014 22.81C144.152 22.0167 143.722 20.7133 143.722 18.9V7.918H141.308V5.368H143.722V0.675998H146.816V5.368H151.678V7.918H146.816ZM187.849 0.471999V24H184.755V6.456L176.935 24H174.759L166.905 6.422V24H163.811V0.471999H167.143L175.847 19.92L184.551 0.471999H187.849ZM191.6 14.616C191.6 12.712 191.985 11.046 192.756 9.618C193.527 8.16733 194.581 7.04533 195.918 6.252C197.278 5.45867 198.785 5.062 200.44 5.062C202.072 5.062 203.489 5.41333 204.69 6.116C205.891 6.81867 206.787 7.70267 207.376 8.768V5.368H210.504V24H207.376V20.532C206.764 21.62 205.846 22.5267 204.622 23.252C203.421 23.9547 202.015 24.306 200.406 24.306C198.751 24.306 197.255 23.898 195.918 23.082C194.581 22.266 193.527 21.1213 192.756 19.648C191.985 18.1747 191.6 16.4973 191.6 14.616ZM207.376 14.65C207.376 13.2447 207.093 12.0207 206.526 10.978C205.959 9.93533 205.189 9.142 204.214 8.598C203.262 8.03133 202.208 7.748 201.052 7.748C199.896 7.748 198.842 8.02 197.89 8.564C196.938 9.108 196.179 9.90133 195.612 10.944C195.045 11.9867 194.762 13.2107 194.762 14.616C194.762 16.044 195.045 17.2907 195.612 18.356C196.179 19.3987 196.938 20.2033 197.89 20.77C198.842 21.314 199.896 21.586 201.052 21.586C202.208 21.586 203.262 21.314 204.214 20.77C205.189 20.2033 205.959 19.3987 206.526 18.356C207.093 17.2907 207.376 16.0553 207.376 14.65ZM218.487 8.802C219.099 7.73667 220.005 6.85267 221.207 6.15C222.431 5.42467 223.847 5.062 225.457 5.062C227.111 5.062 228.607 5.45867 229.945 6.252C231.305 7.04533 232.37 8.16733 233.141 9.618C233.911 11.046 234.297 12.712 234.297 14.616C234.297 16.4973 233.911 18.1747 233.141 19.648C232.37 21.1213 231.305 22.266 229.945 23.082C228.607 23.898 227.111 24.306 225.457 24.306C223.87 24.306 222.465 23.9547 221.241 23.252C220.039 22.5267 219.121 21.6313 218.487 20.566V32.84H215.393V5.368H218.487V8.802ZM231.135 14.616C231.135 13.2107 230.851 11.9867 230.285 10.944C229.718 9.90133 228.947 9.108 227.973 8.564C227.021 8.02 225.967 7.748 224.811 7.748C223.677 7.748 222.623 8.03133 221.649 8.598C220.697 9.142 219.926 9.94667 219.337 11.012C218.77 12.0547 218.487 13.2673 218.487 14.65C218.487 16.0553 218.77 17.2907 219.337 18.356C219.926 19.3987 220.697 20.2033 221.649 20.77C222.623 21.314 223.677 21.586 224.811 21.586C225.967 21.586 227.021 21.314 227.973 20.77C228.947 20.2033 229.718 19.3987 230.285 18.356C230.851 17.2907 231.135 16.044 231.135 14.616Z" fill="#292A69"/>
<path fill-rule="evenodd" clip-rule="evenodd" d="M113.334 11.4105C112.925 11.2787 112.431 11.2046 112.05 11.4105C111.517 11.6989 111 12.2235 111 12.9485C111 15.1263 114.5 17.5679 114.5 17.5679C114.5 17.5679 118 15.1263 118 12.9485C118 12.2235 117.498 11.6989 116.968 11.4105C116.585 11.1991 116.025 11.2156 115.668 11.4105C115.159 11.6879 114.534 12.2647 114.534 12.2647C114.534 12.2647 113.796 11.5589 113.334 11.4105Z" fill="#6374EA"/>
<path d="M114.698 21.5052L113.907 22.5992L114.709 23.1788L115.503 22.589L114.698 21.5052ZM114.698 21.5052C115.503 22.589 115.504 22.5888 115.504 22.5885L115.505 22.5879L115.507 22.5865L115.512 22.5825L115.528 22.5702C115.542 22.5601 115.56 22.5462 115.583 22.5285C115.629 22.4932 115.693 22.4428 115.773 22.3783C115.933 22.2493 116.157 22.0631 116.425 21.8257C116.957 21.3526 117.669 20.6683 118.386 19.8225C119.785 18.1741 121.374 15.7119 121.411 12.887C121.458 9.30003 118.117 6.75327 114.531 6.75327C110.947 6.75327 107.597 9.29863 107.651 12.8894C107.692 15.6786 109.4 18.1514 110.867 19.7976C111.626 20.6482 112.378 21.3421 112.94 21.8232C113.221 22.0645 113.458 22.2544 113.626 22.3857C113.71 22.4514 113.778 22.5027 113.825 22.5385C113.849 22.5564 113.868 22.5705 113.882 22.5807L113.899 22.5929L113.904 22.5968L113.906 22.5982L113.907 22.5988C113.907 22.599 113.907 22.5992 114.698 21.5052Z" stroke="#292A69" stroke-width="2.7"/>
<path d="M239 3.5C239 5.4316 237.448 7 235.5 7C233.568 7 232 5.4316 232 3.5C232 1.55189 233.568 0 235.5 0C237.448 0 239 1.55189 239 3.5ZM238.521 3.5C238.521 1.79953 237.167 0.478774 235.5 0.478774C233.833 0.478774 232.479 1.79953 232.479 3.5C232.479 5.15094 233.833 6.52123 235.5 6.52123C237.167 6.52123 238.521 5.15094 238.521 3.5ZM237.118 5.51415H236.458L235.417 3.92925H234.691V5.51415H234.163V1.50236H235.797C236.474 1.50236 237.068 1.98113 237.068 2.72406C237.068 3.61557 236.276 3.91274 236.045 3.91274L237.118 5.51415ZM236.524 2.72406C236.524 2.2783 236.144 1.96462 235.797 1.96462H234.691V3.45047H235.797C236.144 3.45047 236.524 3.13679 236.524 2.72406Z" fill="#292A69"/>
</svg>
