<svg width="14" height="14" viewBox="0 0 14 14" fill="none" xmlns="http://www.w3.org/2000/svg">
<circle cx="7" cy="7" r="7" fill="#EBEDF8"/>
<path d="M7 2C5.6734 2 4.4017 2.52604 3.46475 3.46475C2.52781 4.40347 2 5.67517 2 7C2 8.32483 2.52603 9.5983 3.46475 10.5352C4.40347 11.4722 5.67517 12 7 12C8.32483 12 9.5983 11.474 10.5352 10.5352C11.4722 9.59653 12 8.32483 12 7C12 5.67517 11.4722 4.40347 10.5335 3.46652C9.59476 2.52958 8.32483 2 7 2ZM9.03861 9.03861C8.89869 9.17676 8.67198 9.17676 8.53206 9.03861L6.85299 7.356C6.71838 7.22317 6.64222 7.04251 6.64222 6.85299V3.78533C6.64222 3.58874 6.80163 3.42756 7 3.42756C7.19837 3.42756 7.35778 3.58696 7.35778 3.78533V6.85299L9.04038 8.53206C9.18031 8.67198 9.18031 8.89869 9.04038 9.03861H9.03861Z" fill="#6374EA"/>
</svg>
