<svg width="14" height="14" viewBox="0 0 14 14" fill="none" xmlns="http://www.w3.org/2000/svg">
<circle cx="7" cy="7" r="7" fill="#EBEDF8"/>
<path d="M8.96558 2H5.03442C4.46513 2 4 2.45881 4 3.02037V10.9796C4 11.5412 4.46513 12 5.03442 12H8.96558C9.53487 12 10 11.5412 10 10.9796V3.02037C10 2.45881 9.53487 2 8.96558 2ZM6.96857 11.4597C6.68842 11.4597 6.45136 11.2347 6.45136 10.9495C6.45136 10.6643 6.67944 10.4393 6.96857 10.4393C7.25771 10.4393 7.48578 10.6643 7.48578 10.9495C7.48578 11.2347 7.24873 11.4597 6.96857 11.4597ZM9.1721 10.062H4.82789V3.32684H9.1721V10.062Z" fill="#6374EA"/>
</svg>
