<svg width="85" height="16" viewBox="0 0 85 16" fill="none" xmlns="http://www.w3.org/2000/svg">
<path d="M4.88127 15.2116C1.94325 15.2116 0 13.5213 0 10.9358H1.64251C1.64251 12.6261 2.98814 13.7196 4.88127 13.7196C7.07128 13.7196 8.1181 12.8244 8.1181 11.3824C8.1181 10.339 7.62071 9.59199 4.83114 9.09529C1.99338 8.59859 0.400989 7.70338 0.400989 5.51444C0.400989 3.3255 2.14375 1.93359 4.83114 1.93359C7.51854 1.93359 9.36155 3.42561 9.36155 5.91103H7.76916C7.76916 4.41901 6.77247 3.42561 4.83114 3.42561C2.88982 3.42561 1.94325 4.27077 1.94325 5.46439C1.94325 6.55789 2.54088 7.10464 5.12996 7.60327C7.9176 8.15002 9.66036 8.94512 9.66036 11.3824C9.71048 13.8678 7.76723 15.2116 4.88127 15.2116Z" fill="#00276B"/>
<path d="M15.8839 6.75887C14.091 6.75887 12.6972 8.351 12.6972 10.2897C12.6972 12.2283 14.091 13.7704 15.8839 13.7704C17.6768 13.7704 19.1207 12.2283 19.1207 10.2897C19.1207 8.351 17.6768 6.75887 15.8839 6.75887ZM20.7131 14.964H19.219V13.4219C18.5713 14.4173 17.3259 15.1623 15.9321 15.1623C13.1946 15.1623 11.2031 12.9252 11.2031 10.1896C11.2031 7.45386 13.2447 5.2168 15.9321 5.2168C17.3259 5.2168 18.5212 6.0119 19.219 6.95717V5.46515H20.7131V14.9621V14.964Z" fill="#00276B"/>
<path d="M31.275 14.9635H29.7328V9.24571C29.7328 7.80375 28.9366 6.71024 27.3924 6.71024C25.9485 6.71024 24.9016 7.75369 24.9016 9.19566V14.9635H23.3594V5.51663H24.8534V6.56008C25.5012 5.76497 26.4979 5.31641 27.5929 5.31641C29.9333 5.31641 31.2269 6.95666 31.2269 9.3439V14.9635H31.277" fill="#00276B"/>
<path d="M37.9965 6.76044C36.2036 6.76044 34.8098 8.35257 34.8098 10.2912C34.8098 12.2299 36.2036 13.772 37.9965 13.772C39.7894 13.772 41.2333 12.2299 41.2333 10.2912C41.2333 8.35257 39.7393 6.76044 37.9965 6.76044ZM42.7756 14.9656H41.2815V13.4235C40.6338 14.4188 39.3884 15.1639 37.9946 15.1639C35.2571 15.1639 33.2656 12.9268 33.2656 10.2412C33.2656 7.55554 35.3072 5.21837 37.9946 5.21837C39.3383 5.21837 40.5335 5.96341 41.2314 6.90868V1.28906H42.7737V14.9637L42.7756 14.9656Z" fill="#00276B"/>
<path d="M53.5751 12.6253L55.6167 5.51367H57.2611L54.4214 14.9625H52.7789L50.7374 7.75266L48.7459 14.9625H47.1034L44.2656 5.51367H45.9081L47.9497 12.6253L49.9412 5.51367H51.5837L53.5751 12.6253Z" fill="#00276B"/>
<path d="M70.7621 15.2119C68.1229 15.2119 66.0312 13.0249 66.0312 10.2892C66.0312 7.55347 68.1731 5.31641 70.7621 5.31641C72.8538 5.31641 74.5465 6.56008 75.1942 8.49874H73.5016C72.9541 7.45529 72.0075 6.80843 70.7641 6.80843C69.0213 6.80843 67.5774 8.39863 67.5774 10.2892C67.5774 12.1797 69.0213 13.7699 70.7641 13.7699C72.0095 13.7699 73.0042 13.123 73.5016 12.0796H75.1942C74.5465 13.9682 72.8538 15.2119 70.7621 15.2119Z" fill="#00276B"/>
<path d="M84.9977 14.9637H83.4535V9.24586C83.4535 7.75384 82.6071 6.76044 81.1131 6.76044C79.619 6.76044 78.6223 7.80389 78.6223 9.19773V14.9656H77.0781V1.28906H78.6223V6.46011C79.2701 5.71507 80.2147 5.2665 81.3116 5.2665C83.652 5.2665 84.9475 6.90676 84.9475 9.29399V14.9617H84.9977" fill="#00276B"/>
<path d="M60.8594 1.38036C60.8594 2.14273 61.4782 2.76072 62.2416 2.76072C63.0051 2.76072 63.6239 2.14273 63.6239 1.38036C63.6239 0.617985 63.0051 0 62.2416 0C61.4782 0 60.8594 0.617985 60.8594 1.38036Z" fill="#F89C22"/>
<path d="M62.7734 5.52318L67.5911 0.794922L68.4567 1.69976L64.173 6.01795V14.8988H62.7734V5.52318Z" fill="#85C7BA"/>
<path d="M61.6188 5.52318L56.8012 0.794922L55.9375 1.69976L60.2192 6.01795V14.8988H61.6188V5.52318Z" fill="#F89C22"/>
</svg>
