<svg width="16" height="15" viewBox="0 0 16 15" fill="none" xmlns="http://www.w3.org/2000/svg">
<path fill-rule="evenodd" clip-rule="evenodd" d="M12.2943 0.764408C12.49 0.688537 12.7091 0.743982 12.8493 0.898642L15.8695 4.25156C16.0418 4.44415 16.0418 4.73305 15.8695 4.92564L12.8493 8.27856C12.7091 8.43322 12.49 8.48575 12.2943 8.41279C12.0986 8.33692 11.9701 8.15016 11.9701 7.94298V6.44306C10.6352 6.481 9.68887 6.68819 8.94696 7.10839C8.12911 7.57529 7.49528 8.34276 6.88774 9.63257C6.78843 9.84559 6.55184 9.96231 6.32401 9.90979C6.09326 9.85726 5.92969 9.65591 5.92969 9.41954C5.92969 6.92455 6.58104 5.21745 7.79905 4.14942C8.89147 3.19228 10.3548 2.82168 11.9672 2.7604V1.23423C11.9672 1.02704 12.0957 0.840279 12.2914 0.764408H12.2943Z" fill="#F89C22"/>
<path d="M10.8676 9.38563V12.8903H2.41452V5.40824H5.17767C5.47853 4.55907 5.94003 3.84413 6.39276 3.2926H1.92381C1.0271 3.2926 0.296875 4.02213 0.296875 4.91799V13.3747C0.296875 14.2706 1.0271 15.0001 1.92381 15.0001H11.3553C12.2521 15.0001 12.9823 14.2706 12.9823 13.3747V9.37979H10.8646L10.8676 9.38563Z" fill="#F89C22"/>
</svg>
