<svg width="267" height="41" viewBox="0 0 267 41" fill="none" xmlns="http://www.w3.org/2000/svg">
<g clip-path="url(#clip0_2108_1358)">
<path d="M10.4832 32.4678C4.16939 32.4678 0 28.8574 0 23.3428H3.53203C3.53203 26.9533 6.42006 29.2856 10.4832 29.2856C15.1904 29.2856 17.4344 27.375 17.4344 24.2981C17.4344 22.0712 16.3655 20.4768 10.377 19.4161C4.27561 18.3553 0.85645 16.4447 0.85645 11.7735C0.85645 7.10226 4.60093 4.13086 10.377 4.13086C16.153 4.13086 20.11 7.31309 20.11 12.6234H16.6842C16.6842 9.44116 14.5464 7.31967 10.377 7.31967C6.2076 7.31967 4.16939 9.12491 4.16939 11.6681C4.16939 14.0004 5.45738 15.1731 11.0143 16.2339C17.0095 17.4 20.7473 19.0998 20.7473 24.2981C20.8536 29.6084 16.6842 32.4744 10.4832 32.4744" fill="white"/>
<path d="M34.1181 14.4283C30.2674 14.4283 27.2731 17.8279 27.2731 21.9655C27.2731 26.103 30.2674 29.3973 34.1181 29.3973C37.9688 29.3973 41.0693 26.1096 41.0693 21.9655C41.0693 17.8213 37.9688 14.4283 34.1181 14.4283ZM44.4951 31.9404H41.2884V28.6528C39.8941 30.7742 37.2186 32.3687 34.2243 32.3687C28.342 32.3687 24.0664 27.592 24.0664 21.7546C24.0664 15.9173 28.4482 11.1406 34.2243 11.1406C37.2186 11.1406 39.7879 12.8404 41.2884 14.8565V11.6743H44.4951V31.947V31.9404Z" fill="white"/>
<path d="M67.1689 31.941H63.8559V19.7326C63.8559 16.6558 62.143 14.3169 58.8301 14.3169C55.723 14.3169 53.479 16.5438 53.479 19.6206V31.9344H50.166V11.7671H53.3727V13.994C54.7603 12.2942 56.9048 11.3389 59.255 11.3389C64.2808 11.3389 67.0627 14.8439 67.0627 19.9368V31.9344H67.1689" fill="white"/>
<path d="M81.6091 14.4287C77.7584 14.4287 74.7641 17.8217 74.7641 21.9659C74.7641 26.11 77.7584 29.3976 81.6091 29.3976C85.4598 29.3976 88.5603 26.11 88.5603 21.9659C88.5603 17.8217 85.3535 14.4287 81.6091 14.4287ZM91.8798 31.9408H88.6665V28.6532C87.2789 30.7746 84.6033 32.369 81.6091 32.369C75.7268 32.369 71.4512 27.5924 71.4512 21.8604C71.4512 16.1285 75.833 11.141 81.6091 11.141C84.4971 11.141 87.0664 12.7354 88.5603 14.7515V2.75391H91.8798V31.9408Z" fill="white"/>
<path d="M115.083 26.9533L119.472 11.7734H123.004L116.902 31.9407H113.377L108.988 16.5501L104.713 31.9407H101.181L95.0859 11.7734H98.618L103 26.9533L107.275 11.7734H110.807L115.083 26.9533Z" fill="white"/>
<path d="M151.991 32.4683C146.321 32.4683 141.826 27.7971 141.826 21.9597C141.826 16.1223 146.427 11.3457 151.991 11.3457C156.479 11.3457 160.117 14.0009 161.505 18.1384H157.873C156.691 15.9115 154.66 14.5279 151.991 14.5279C148.246 14.5279 145.146 17.9276 145.146 21.9597C145.146 25.9919 148.246 29.3915 151.991 29.3915C154.66 29.3915 156.804 28.0145 157.873 25.781H161.505C160.117 29.8132 156.479 32.4683 151.991 32.4683Z" fill="white"/>
<path d="M182.576 31.9408H179.263V19.7324C179.263 16.5501 177.444 14.4287 174.23 14.4287C171.017 14.4287 168.886 16.6556 168.886 19.627V31.9408H165.566V2.75391H168.886V13.7896C170.274 12.1952 172.305 11.2398 174.662 11.2398C179.688 11.2398 182.47 14.7449 182.47 19.8378V31.9408H182.576Z" fill="white"/>
<path d="M130.719 2.94504C130.719 4.57239 132.047 5.89008 133.693 5.89008C135.34 5.89008 136.661 4.57239 136.661 2.94504C136.661 1.31769 135.333 0 133.693 0C132.053 0 130.719 1.31769 130.719 2.94504Z" fill="#F89C22"/>
<path d="M134.842 11.7937L145.192 1.7002L147.051 3.63061L137.849 12.8479V31.8029H134.842V11.7937Z" fill="#85C7BA"/>
<path d="M132.365 11.7937L122.021 1.7002L120.162 3.63061L129.357 12.8479V31.8029H132.365V11.7937Z" fill="#F89C22"/>
<path d="M208.164 2.72754H204.559L193.678 31.9474H197.216L199.786 25.0163H212.891L215.461 31.9474H218.999L208.164 2.72754ZM211.869 22.1964H200.821L206.345 7.18134L211.869 22.1964Z" fill="white"/>
<path d="M232.669 29.3251C236.52 29.3251 239.514 25.9321 239.514 21.7879C239.514 17.6438 236.52 14.3562 232.669 14.3562C228.818 14.3562 225.718 17.6438 225.718 21.7879C225.718 25.9321 228.925 29.3251 232.669 29.3251ZM222.398 11.813H225.612V15.1007C226.999 12.9792 229.675 11.3848 232.669 11.3848C238.551 11.3848 242.827 16.1614 242.827 21.8934C242.827 27.6253 238.445 32.6128 232.669 32.6128C229.781 32.6128 227.212 31.0184 225.718 29.0023V40.9933H222.398V11.813Z" fill="white"/>
<path d="M256.843 29.3251C260.694 29.3251 263.688 25.9321 263.688 21.7879C263.688 17.6438 260.694 14.3562 256.843 14.3562C252.992 14.3562 249.892 17.6438 249.892 21.7879C249.892 25.9321 253.099 29.3251 256.843 29.3251ZM246.572 11.813H249.786V15.1007C251.173 12.9792 253.849 11.3848 256.843 11.3848C262.725 11.3848 267.001 16.1614 267.001 21.8934C267.001 27.6253 262.619 32.6128 256.843 32.6128C253.955 32.6128 251.386 31.0184 249.892 29.0023V40.9933H246.572V11.813Z" fill="white"/>
</g>
<defs>
<clipPath id="clip0_2108_1358">
<rect width="267" height="41" fill="white"/>
</clipPath>
</defs>
</svg>
