<svg width="34" height="34" viewBox="0 0 34 34" fill="none" xmlns="http://www.w3.org/2000/svg">
<path d="M20.6016 8.72543C16.0308 6.73852 10.7161 8.83084 8.72801 13.4002C6.73992 17.9669 8.83278 23.2821 13.4009 25.2716C17.9691 27.2612 23.2864 25.1688 25.2745 20.5995C27.2626 16.0301 25.1697 10.715 20.6016 8.72807V8.72543ZM21.7803 15.6902L16.3556 20.5626L15.8003 21.0606C15.6248 21.2161 15.3576 21.2029 15.1978 21.0316L14.6923 20.4835L12.1856 17.7772C12.0074 17.5848 12.0205 17.2844 12.2118 17.1052L13.2543 16.1408C13.4455 15.9616 13.7467 15.9748 13.9248 16.1671L15.6379 18.0196L20.1956 13.9272C20.3894 13.7533 20.6906 13.7691 20.8661 13.9641L21.8169 15.0208C21.9924 15.2158 21.9741 15.5189 21.7803 15.6928V15.6902Z" fill="#00276B"/>
<path d="M16.4608 0.0134559C16.6733 0.00538236 16.8857 0 17.1009 0C21.7936 0 26.0454 1.92958 29.1208 5.04596C31.7871 7.7479 33.5718 11.346 33.9994 15.3559C34.0153 15.5146 33.9702 15.6546 33.8666 15.773C33.763 15.8914 33.6276 15.9506 33.4709 15.9506H30.2203C29.952 15.9506 29.7289 15.7542 29.6944 15.485C29.312 12.6243 28.0054 10.0623 26.0879 8.11929C23.788 5.78873 20.6118 4.34895 17.1035 4.34895C17.0531 4.34895 17.0053 4.34895 16.9548 4.34895C16.6866 4.35164 16.4608 4.15518 16.4236 3.88606L15.9589 0.624353C15.9376 0.468265 15.9748 0.325633 16.0757 0.20453C16.1767 0.0834266 16.3068 0.0161471 16.4635 0.0107647L16.4608 0.0134559Z" fill="#00276B"/>
<path fill-rule="evenodd" clip-rule="evenodd" d="M33.8663 18.3847C33.7624 18.2675 33.6266 18.2062 33.4694 18.2062H30.2088C29.9397 18.2062 29.716 18.4007 29.6813 18.6672C29.2977 21.4996 27.9871 24.0362 26.0637 25.9626C23.7568 28.2675 20.5707 29.6956 17.0517 29.6956C13.5327 29.6956 10.3466 28.2675 8.03969 25.9626C5.73541 23.6552 4.30755 20.4684 4.30755 16.9486C4.30755 13.6419 5.56758 10.6283 7.63211 8.36348C8.15957 8.95766 8.58846 9.43994 8.79092 9.66643C9.0653 9.97551 9.46222 10.0954 9.85914 9.98883C10.2561 9.88492 10.5438 9.58383 10.629 9.18148L11.961 2.96782C12.0356 2.62409 11.9477 2.29636 11.7159 2.03523C11.4841 1.77411 11.1671 1.64888 10.8208 1.68352L4.49402 2.28037C4.08378 2.31767 3.75345 2.56814 3.60161 2.95183C3.44977 3.33552 3.52436 3.74319 3.79608 4.04961C3.9719 4.24945 4.32353 4.6438 4.76574 5.1394C1.81413 8.20094 0 12.3629 0 16.9486C0 21.5342 1.91003 25.92 4.99217 29.0055C8.07699 32.0911 12.3392 33.9988 17.0464 33.9988C21.7535 33.9988 26.0184 32.0911 29.1033 29.0055C31.7778 26.3304 33.568 22.7679 33.9969 18.7977C34.0129 18.6405 33.9676 18.502 33.8637 18.3847H33.8663Z" fill="#6374EA"/>
</svg>
