<svg width="15" height="15" viewBox="0 0 15 15" fill="none" xmlns="http://www.w3.org/2000/svg">
<path d="M7.29034 8.31719V14.3925C7.29034 14.5536 7.22633 14.7081 7.1124 14.8221C6.99846 14.936 6.84394 15 6.68281 15H0.607528C0.446402 15 0.291875 14.936 0.177941 14.8221C0.0640073 14.7081 0 14.5536 0 14.3925V8.31719C0 8.15606 0.0640073 8.00154 0.177941 7.8876C0.291875 7.77367 0.446402 7.70966 0.607528 7.70966H6.68281C6.84394 7.70966 6.99846 7.77367 7.1124 7.8876C7.22633 8.00154 7.29034 8.15606 7.29034 8.31719ZM10.1255 4.267H4.05019C3.88906 4.267 3.73453 4.33101 3.6206 4.44494C3.50667 4.55888 3.44266 4.7134 3.44266 4.87453V6.21109H7.69536C7.98539 6.21109 8.26354 6.3263 8.46862 6.53139C8.6737 6.73647 8.78891 7.01462 8.78891 7.30464V11.5573H10.1255C10.2866 11.5573 10.4411 11.4933 10.5551 11.3794C10.669 11.2655 10.733 11.1109 10.733 10.9498V4.87453C10.733 4.7134 10.669 4.55888 10.5551 4.44494C10.4411 4.33101 10.2866 4.267 10.1255 4.267ZM13.5681 0.824341H7.49285C7.33172 0.824341 7.17719 0.888348 7.06326 1.00228C6.94933 1.11622 6.88532 1.27074 6.88532 1.43187V2.76843H11.138C11.428 2.76843 11.7062 2.88364 11.9113 3.08873C12.1164 3.29381 12.2316 3.57195 12.2316 3.86198V8.11468H13.5681C13.7293 8.11468 13.8838 8.05067 13.9977 7.93674C14.1117 7.82281 14.1757 7.66828 14.1757 7.50715V1.43187C14.1757 1.27074 14.1117 1.11622 13.9977 1.00228C13.8838 0.888348 13.7293 0.824341 13.5681 0.824341Z" fill="#F89C22"/>
</svg>
