<svg width="26" height="26" viewBox="0 0 26 26" fill="none" xmlns="http://www.w3.org/2000/svg">
<path d="M25.5944 23.301C25.5738 23.2803 25.5324 23.2389 25.5324 23.2389L21.3377 18.1098L21.3791 18.0477C24.3753 13.4563 23.7347 7.31374 19.8706 3.42551C15.3453 -1.12455 7.94776 -1.14523 3.40178 3.38415L3.38111 3.40483C-1.1442 7.95489 -1.12354 15.3591 3.42244 19.8884C7.30719 23.756 13.4443 24.3971 18.0316 21.3982L18.0729 21.3569L23.1768 25.5347C23.1768 25.5347 23.2181 25.576 23.2595 25.5967C23.9 26.1344 24.8092 26.1344 25.4291 25.5967L25.5324 25.514L25.6151 25.4106C26.1317 24.8315 26.1317 23.9214 25.5944 23.301ZM17.515 17.5514C14.2708 20.7985 8.98094 20.7985 5.73676 17.5514C2.49258 14.3043 2.49258 9.00967 5.73676 5.76258C8.98094 2.5155 14.2708 2.5155 17.515 5.76258C20.7592 9.00967 20.7592 14.3043 17.515 17.5514Z" fill="#6374EA"/>
</svg>
