<svg width="21" height="21" viewBox="0 0 21 21" fill="none" xmlns="http://www.w3.org/2000/svg">
<path fill-rule="evenodd" clip-rule="evenodd" d="M2.7335 18.3673C2.6985 18.3717 2.66175 18.3743 2.625 18.3743H0.875C0.642936 18.3743 0.420376 18.2821 0.256282 18.118C0.0921872 17.9539 0 17.7314 0 17.4993C0 17.2672 0.0921872 17.0447 0.256282 16.8806C0.420376 16.7165 0.642936 16.6243 0.875 16.6243H2.625C2.66175 16.6243 2.69763 16.6269 2.7335 16.6313C2.92676 15.8794 3.36442 15.213 3.97768 14.7369C4.59095 14.2608 5.34504 14.002 6.12141 14.0012C6.89779 14.0004 7.65241 14.2577 8.26666 14.7325C8.88091 15.2073 9.31994 15.8728 9.51475 16.6243H20.125C20.3571 16.6243 20.5796 16.7165 20.7437 16.8806C20.9078 17.0447 21 17.2672 21 17.4993C21 17.7314 20.9078 17.9539 20.7437 18.118C20.5796 18.2821 20.3571 18.3743 20.125 18.3743H9.51475C9.31994 19.1258 8.88091 19.7913 8.26666 20.2662C7.65241 20.741 6.89779 20.9982 6.12141 20.9974C5.34504 20.9966 4.59095 20.7378 3.97768 20.2617C3.36442 19.7856 2.92676 19.1192 2.7335 18.3673ZM6.125 19.2493C6.58913 19.2493 7.03425 19.0649 7.36244 18.7367C7.69063 18.4086 7.875 17.9634 7.875 17.4993C7.875 17.0352 7.69063 16.5901 7.36244 16.2619C7.03425 15.9337 6.58913 15.7493 6.125 15.7493C5.66087 15.7493 5.21575 15.9337 4.88756 16.2619C4.55937 16.5901 4.375 17.0352 4.375 17.4993C4.375 17.9634 4.55937 18.4086 4.88756 18.7367C5.21575 19.0649 5.66087 19.2493 6.125 19.2493ZM6.125 5.24931C6.58913 5.24931 7.03425 5.06494 7.36244 4.73675C7.69063 4.40856 7.875 3.96344 7.875 3.49931C7.875 3.03518 7.69063 2.59006 7.36244 2.26188C7.03425 1.93369 6.58913 1.74931 6.125 1.74931C5.66087 1.74931 5.21575 1.93369 4.88756 2.26188C4.55937 2.59006 4.375 3.03518 4.375 3.49931C4.375 3.96344 4.55937 4.40856 4.88756 4.73675C5.21575 5.06494 5.66087 5.24931 6.125 5.24931ZM9.51475 2.62431C9.31994 1.87278 8.88091 1.20729 8.26666 0.73247C7.65241 0.25765 6.89779 0.000421154 6.12141 0.00122257C5.34504 0.00202399 4.59095 0.26081 3.97768 0.736898C3.36442 1.21299 2.92676 1.87938 2.7335 2.63131C2.69751 2.62675 2.66128 2.62442 2.625 2.62431H0.875C0.642936 2.62431 0.420376 2.7165 0.256282 2.88059C0.0921872 3.04469 0 3.26725 0 3.49931C0 3.73138 0.0921872 3.95394 0.256282 4.11803C0.420376 4.28212 0.642936 4.37431 0.875 4.37431H2.625C2.66175 4.37431 2.69763 4.37169 2.7335 4.36731C2.92676 5.11925 3.36442 5.78564 3.97768 6.26173C4.59095 6.73781 5.34504 6.9966 6.12141 6.9974C6.89779 6.9982 7.65241 6.74098 8.26666 6.26615C8.88091 5.79133 9.31994 5.12585 9.51475 4.37431H20.125C20.3571 4.37431 20.5796 4.28212 20.7437 4.11803C20.9078 3.95394 21 3.73138 21 3.49931C21 3.26725 20.9078 3.04469 20.7437 2.88059C20.5796 2.7165 20.3571 2.62431 20.125 2.62431H9.51475ZM13.125 10.4993C13.125 10.9634 13.3094 11.4086 13.6376 11.7367C13.9658 12.0649 14.4109 12.2493 14.875 12.2493C15.3391 12.2493 15.7842 12.0649 16.1124 11.7367C16.4406 11.4086 16.625 10.9634 16.625 10.4993C16.625 10.0352 16.4406 9.59006 16.1124 9.26188C15.7842 8.93369 15.3391 8.74931 14.875 8.74931C14.4109 8.74931 13.9658 8.93369 13.6376 9.26188C13.3094 9.59006 13.125 10.0352 13.125 10.4993ZM14.875 13.9993C14.099 13.9992 13.345 13.7413 12.7314 13.2662C12.1179 12.7911 11.6795 12.1256 11.4853 11.3743H0.875C0.642936 11.3743 0.420376 11.2821 0.256282 11.118C0.0921872 10.9539 0 10.7314 0 10.4993C0 10.2672 0.0921872 10.0447 0.256282 9.88059C0.420376 9.7165 0.642936 9.62431 0.875 9.62431H11.4853C11.6801 8.87278 12.1191 8.20729 12.7333 7.73247C13.3476 7.25765 14.1022 7.00042 14.8786 7.00122C15.655 7.00202 16.4091 7.26081 17.0223 7.7369C17.6356 8.21299 18.0732 8.87938 18.2665 9.63131C18.3015 9.62694 18.3382 9.62431 18.375 9.62431H20.125C20.3571 9.62431 20.5796 9.7165 20.7437 9.88059C20.9078 10.0447 21 10.2672 21 10.4993C21 10.7314 20.9078 10.9539 20.7437 11.118C20.5796 11.2821 20.3571 11.3743 20.125 11.3743H18.375C18.3382 11.3743 18.3024 11.3717 18.2665 11.3673C18.0735 12.1202 17.6354 12.7875 17.0214 13.264C16.4074 13.7405 15.6522 13.9992 14.875 13.9993Z" fill="white"/>
</svg>
